DataType=double
version=3
OpenSimVersion=4.5-2023-11-26-efcdfd3eb
endheader
time	plate1_ground_force_vx	plate1_ground_force_vy	plate1_ground_force_vz	plate1_ground_force_px	plate1_ground_force_py	plate1_ground_force_pz	plate1_ground_torque_x	plate1_ground_torque_y	plate1_ground_torque_z
0.14	-8.60967503	60.92653563	1.94316159	-0.94349827	0	0.20906337	-0	-0.36131012	0
0.15	-13.5641512	88.80191021	2.41387975	-0.94048649	0	0.20855627	-0	-0.49850576	0
0.16	-19.9915475	121.55394722	2.53504896	-0.9368725	0	0.20822854	-0	-0.63631559	0
0.17	-27.72076162	157.63452683	2.03233299	-0.93270339	0	0.20818848	-0	-0.75580824	0
0.18	-36.37710329	195.53630252	0.6924135	-0.9279890200000001	0	0.20847091	-0	-0.84211593	0
0.19	-45.44265184	234.26188505	-1.55083872	-0.92275173	0	0.20903615	-0	-0.89012694	0
0.2	-54.33779178	273.43590458	-4.57513462	-0.91707918	0	0.20978982	0	-0.90645789	0
0.21	-62.494232	313.01498339	-8.097331110000001	-0.91114463	0	0.21061312	0	-0.90664999	0
0.22	-69.40810427	352.79690987	-11.75884614	-0.9051822899999999	0	0.21139433	0	-0.90901276	0
0.23	-74.68000725	392.03091687	-15.22912678	-0.89943177	0	0.21205375	0	-0.92811811	0
0.24	-78.05086439999999	429.33677432	-18.28221275	-0.89407879	0	0.21255679	0	-0.9707595	0
0.25	-79.43029835999999	462.94371544	-20.82087214	-0.88921634	0	0.21291288	0	-1.03557269	0
0.26	-78.90386214	491.10041426	-22.85194572	-0.88483651	0	0.21316253	0	-1.1156064	0
0.27	-76.70890245	512.46364833	-24.43714444	-0.88084971	0	0.21335867	0	-1.20201209	0
0.28	-73.18306002	526.33247293	-25.64643207	-0.87711916	0	0.2135493	0	-1.28707361	0
0.29	-68.70201133	532.69195582	-26.52988958	-0.87349778	0	0.21376597	0	-1.36565443	0
0.3	-63.62516181	532.10747121	-27.10936834	-0.8698582	0	0.21401911	0	-1.43511951	0
0.31	-58.26058069	525.5434731	-27.38252306	-0.86611152	0	0.21429908	0	-1.49437986	0
0.32	-52.8504333	514.17539227	-27.33140921	-0.86221444	0	0.214581	0	-1.54280024	0
0.33	-47.57140449	499.2378686	-26.93205847	-0.85816664	0	0.21483174	0	-1.5794871	0
0.34	-42.54279851	481.92403608	-26.1650278	-0.85400152	0	0.21501772	0	-1.60316714	0
0.35	-37.83674921	463.32977683	-25.02717098	-0.84977359	0	0.21511215	0	-1.61260233	0
0.36	-33.48801757	444.42755003	-23.54278745	-0.84554492	0	0.2151004	0	-1.60729289	0
0.37	-29.50330947	426.05493797	-21.770558	-0.84137171	0	0.21498287	0	-1.58811569	0
0.38	-25.87083088	408.90895151	-19.80309672	-0.83729164	0	0.214775	0	-1.55757704	0
0.39	-22.56985205	393.54383601	-17.75835995	-0.8333136799999999	0	0.21450461	0	-1.51954437	0
0.4	-19.57835289	380.37477342	-15.76508137	-0.82941315	0	0.21420697	0	-1.47858809	0
0.41	-16.87585759	369.69162399	-13.94635409	-0.82553518	0	0.21391852	0	-1.43926117	0
0.42	-14.4394421	361.68587783	-12.40571577	-0.82160771	0	0.21367013	0	-1.40564361	0
0.43	-12.23358801	356.49051227	-11.2187174	-0.81756221	0	0.21348162	0	-1.38128373	0
0.44	-10.19779319	354.2267387	-10.43071605	-0.81335728	0	0.21335879	0	-1.3694129	0
0.45	-8.237735130000001	355.04508272	-10.05959487	-0.80899858	0	0.21329377	-0	-1.37316754	0
0.46	-6.22487831	359.14416992	-10.1011765	-0.80454868	0	0.21326836	-0	-1.39560436	0
0.47	-4.00577462	366.75289966	-10.53543559	-0.80012291	0	0.21325944	-0	-1.43948563	0
0.48	-1.41777456	378.07190987	-11.33252742	-0.79587072	0	0.213245	-0	-1.50698444	0
0.49	1.69480339	393.18530605	-12.45808474	-0.7919471	0	0.21320926	-0	-1.59948448	0
0.5	5.46896741	411.9668221	-13.87674837	-0.78848177	0	0.21314569	-0	-1.71750524	0
0.51	10.01662459	434.00928295	-15.5521842	-0.78555477	0	0.21305701	-0	-1.86059756	0
0.52	15.42003874	458.59987055	-17.44223759	-0.78318488	0	0.21295195	-0	-2.02699901	0
0.53	21.72476314	484.74912447	-19.49008386	-0.78133234	0	0.21283996	-0	-2.2130022	0
0.54	28.92875055	511.2653249	-21.61531828	-0.77991308	0	0.21272564	-0	-2.41227361	0
0.55	36.97120155	536.8542961000001	-23.71066106	-0.77881867	0	0.21260527	-0	-2.615545	0
0.5600000000000001	45.7272921	560.2208454300001	-25.64845733	-0.77793629	0	0.21246699	-0	-2.8110198	0
0.57	55.01275108	580.15116166	-27.29661732	-0.77716486	0	0.21229456	-0	-2.98553343	0
0.58	64.59646725	595.56264629	-28.53858108	-0.77642572	0	0.21207316	-0	-3.12619103	0
0.59	74.21382637000001	605.5165140399999	-29.28952348	-0.77566761	0	0.21179512	-0	-3.22205737	0
0.6	83.57211427	609.19828616	-29.50295794	-0.7748663	0	0.21146338	-0	-3.26549469	0
0.61	92.34313152	605.8816184900001	-29.16698517	-0.7740189	0	0.2110921	-0	-3.25281985	0
0.62	100.14524437	594.90012961	-28.29455186	-0.7731335	0	0.21070464	-0	-3.18404722	0
0.63	106.52452734	575.65682028	-26.9143054	-0.77221489	0	0.2103301	-0	-3.06171353	0
0.64	110.95043582	547.69752368	-25.06702708	-0.77124905	0	0.20999932	-0	-2.88922801	0
0.65	112.84427381	510.86043535	-22.80857565	-0.77019047	0	0.2097406	-0	-2.66966425	0
0.66	111.65596825	465.48685494	-20.21628496	-0.76895854	0	0.20957523	-0	-2.4059684	0
0.67	106.99187801	412.64197572	-17.39381353	-0.7674486700000001	0	0.20951321	-0	-2.10288897	0
0.68	98.77140764000001	354.26032444	-14.47002577	-0.76555883	0	0.20955088	-0	-1.76975916	0
0.6899999999999999	87.36027136	293.11882973	-11.58980555	-0.76322499	0	0.20967185	-0	-1.42233523	0
0.7	73.61211901	232.57261559	-8.89762936	-0.76045524	0	0.20984931	-0	-1.08199319	0
0.71	58.76820085	176.06853688	-6.51743026	-0.7573617499999999	0	0.21004001	-0	-0.77187132	0
0.72	44.22001844	126.55185381	-4.53413722	-0.75420672	0	0.21015426	-0	-0.51131509	0
0.73	31.20751329	85.9498791	-2.98252134	-0.75148437	0	0.20999101	-0	-0.31109014	0
0.74	20.56382322	54.90638155	-1.84702426	-0.75002715	0	0.20915298	-0	-0.17151001	0
